<svg width="14000" height="1692" viewBox="0 0 14000 1692" fill="none" xmlns="http://www.w3.org/2000/svg">
<path d="M13932.6 -0.000366211L13057.9 42.7823L13124.2 607.79L13998.8 565.007L13932.6 -0.000366211Z" fill="white"/>
<path d="M13616.2 1052.68L13123.1 606.882L13999.5 564.071L13616.2 1052.68Z" fill="white"/>
<path d="M10451.7 170.264L9577 213.047L9643.23 778.055L10517.9 735.272L10451.7 170.264Z" fill="white"/>
<path d="M10135.2 1222.97L9642.27 777.202L10518.6 734.336L10135.2 1222.97Z" fill="white"/>
<path d="M6970.73 340.528L6096.07 383.311L6162.3 948.319L7036.96 905.536L6970.73 340.528Z" fill="white"/>
<path d="M6654.29 1393.24L6161.34 947.467L7037.71 904.6L6654.29 1393.24Z" fill="white"/>
<path d="M3489.79 510.793L2615.13 553.575L2681.36 1118.58L3556.02 1075.8L3489.79 510.793Z" fill="white"/>
<path d="M3173.35 1563.5L2680.4 1117.73L3556.77 1074.86L3173.35 1563.5Z" fill="white"/>
<path d="M12192.1 85.1317L11317.5 127.914L11383.7 692.922L12258.4 650.14L12192.1 85.1317Z" fill="white"/>
<path d="M11875.7 1137.84L11382.7 692.07L12259.1 649.204L11875.7 1137.84Z" fill="white"/>
<path d="M8711.19 255.396L7836.53 298.179L7902.76 863.187L8777.42 820.404L8711.19 255.396Z" fill="white"/>
<path d="M8394.75 1308.11L7901.8 862.335L8778.18 819.468L8394.75 1308.11Z" fill="white"/>
<path d="M5230.27 425.661L4355.6 468.443L4421.83 1033.45L5296.5 990.669L5230.27 425.661Z" fill="white"/>
<path d="M4913.82 1478.37L4420.87 1032.6L5297.25 989.733L4913.82 1478.37Z" fill="white"/>
<path d="M1749.33 595.925L874.667 638.708L940.896 1203.72L1815.56 1160.93L1749.33 595.925Z" fill="white"/>
<path d="M1432.89 1648.63L939.934 1202.86L1816.31 1160L1432.89 1648.63Z" fill="white"/>
<path d="M13057.9 42.782L12183.3 85.5647L12249.5 650.573L13124.2 607.79L13057.9 42.782Z" fill="white"/>
<path d="M12741.5 1095.49L12248.5 649.72L13124.9 606.854L12741.5 1095.49Z" fill="white"/>
<path d="M9577 213.047L8702.34 255.829L8768.57 820.837L9643.23 778.055L9577 213.047Z" fill="white"/>
<path d="M9260.56 1265.76L8767.61 819.985L9643.98 777.119L9260.56 1265.76Z" fill="white"/>
<path d="M6096.06 383.311L5221.4 426.094L5287.63 991.102L6162.29 948.319L6096.06 383.311Z" fill="white"/>
<path d="M5779.62 1436.02L5286.67 990.249L6163.05 947.383L5779.62 1436.02Z" fill="white"/>
<path d="M2615.13 553.575L1740.47 596.358L1806.7 1161.37L2681.36 1118.58L2615.13 553.575Z" fill="white"/>
<path d="M2298.69 1606.28L1805.74 1160.51L2682.11 1117.65L2298.69 1606.28Z" fill="white"/>
<path d="M11317.5 127.914L10442.8 170.697L10509 735.705L11383.7 692.922L11317.5 127.914Z" fill="white"/>
<path d="M11001 1180.62L10508.1 734.853L11384.5 691.986L11001 1180.62Z" fill="white"/>
<path d="M7836.53 298.179L6961.87 340.962L7028.1 905.969L7902.76 863.187L7836.53 298.179Z" fill="white"/>
<path d="M7520.09 1350.89L7027.14 905.117L7903.51 862.251L7520.09 1350.89Z" fill="white"/>
<path d="M4355.6 468.443L3480.94 511.226L3547.17 1076.23L4421.83 1033.45L4355.6 468.443Z" fill="white"/>
<path d="M4039.16 1521.15L3546.2 1075.38L4422.58 1032.51L4039.16 1521.15Z" fill="white"/>
<path d="M874.663 638.708L-0.000488281 681.491L66.23 1246.5L940.892 1203.72L874.663 638.708Z" fill="white"/>
<path d="M558.223 1691.42L65.269 1245.65L941.645 1202.78L558.223 1691.42Z" fill="white"/>
</svg>
