<svg width="14000" height="1692" viewBox="0 0 14000 1692" fill="none" xmlns="http://www.w3.org/2000/svg">
<path d="M66.9091 1691.42L941.572 1648.63L875.342 1083.63L0.679121 1126.41L66.9091 1691.42Z" fill="black"/>
<path d="M383.355 638.74L876.383 1084.54L0 1127.35L383.355 638.74Z" fill="black"/>
<path d="M3547.85 1521.15L4422.51 1478.37L4356.28 913.362L3481.62 956.145L3547.85 1521.15Z" fill="black"/>
<path d="M3864.29 468.444L4357.24 914.215L3480.87 957.081L3864.29 468.444Z" fill="black"/>
<path d="M7028.78 1350.89L7903.44 1308.11L7837.21 743.098L6962.55 785.881L7028.78 1350.89Z" fill="black"/>
<path d="M7345.22 298.179L7838.18 743.95L6961.8 786.817L7345.22 298.179Z" fill="black"/>
<path d="M10509.7 1180.62L11384.4 1137.84L11318.2 572.834L10443.5 615.616L10509.7 1180.62Z" fill="black"/>
<path d="M10826.2 127.915L11319.1 573.686L10442.7 616.552L10826.2 127.915Z" fill="black"/>
<path d="M1807.38 1606.29L2682.04 1563.5L2615.81 998.495L1741.15 1041.28L1807.38 1606.29Z" fill="black"/>
<path d="M2123.82 553.576L2616.77 999.347L1740.4 1042.21L2123.82 553.576Z" fill="black"/>
<path d="M5288.32 1436.02L6162.98 1393.24L6096.75 828.23L5222.09 871.013L5288.32 1436.02Z" fill="black"/>
<path d="M5604.76 383.311L6097.71 829.082L5221.33 871.949L5604.76 383.311Z" fill="black"/>
<path d="M8769.25 1265.76L9643.91 1222.97L9577.68 657.966L8703.02 700.748L8769.25 1265.76Z" fill="black"/>
<path d="M9085.69 213.047L9578.64 658.818L8702.27 701.684L9085.69 213.047Z" fill="black"/>
<path d="M12250.2 1095.49L13124.8 1052.71L13058.6 487.702L12184 530.484L12250.2 1095.49Z" fill="black"/>
<path d="M12566.6 42.7827L13059.6 488.554L12183.2 531.42L12566.6 42.7827Z" fill="black"/>
<path d="M941.576 1648.64L1816.24 1605.85L1750.01 1040.84L875.346 1083.63L941.576 1648.64Z" fill="black"/>
<path d="M1258.02 595.926L1750.97 1041.7L874.593 1084.56L1258.02 595.926Z" fill="black"/>
<path d="M4422.51 1478.37L5297.17 1435.59L5230.94 870.58L4356.28 913.362L4422.51 1478.37Z" fill="black"/>
<path d="M4738.95 425.661L5231.9 871.432L4355.53 914.298L4738.95 425.661Z" fill="black"/>
<path d="M7903.45 1308.11L8778.11 1265.32L8711.88 700.315L7837.22 743.098L7903.45 1308.11Z" fill="black"/>
<path d="M8219.89 255.397L8712.84 701.168L7836.47 744.034L8219.89 255.397Z" fill="black"/>
<path d="M11384.4 1137.84L12259 1095.06L12192.8 530.051L11318.1 572.834L11384.4 1137.84Z" fill="black"/>
<path d="M11700.8 85.1322L12193.8 530.903L11317.4 573.77L11700.8 85.1322Z" fill="black"/>
<path d="M2682.04 1563.5L3556.7 1520.72L3490.47 955.712L2615.81 998.495L2682.04 1563.5Z" fill="black"/>
<path d="M2998.48 510.793L3491.44 956.564L2615.06 999.431L2998.48 510.793Z" fill="black"/>
<path d="M6162.98 1393.24L7037.64 1350.46L6971.41 785.448L6096.75 828.23L6162.98 1393.24Z" fill="black"/>
<path d="M6479.42 340.529L6972.37 786.3L6096 829.166L6479.42 340.529Z" fill="black"/>
<path d="M9643.91 1222.97L10518.6 1180.19L10452.3 615.183L9577.68 657.966L9643.91 1222.97Z" fill="black"/>
<path d="M9960.35 170.265L10453.3 616.035L9576.93 658.902L9960.35 170.265Z" fill="black"/>
<path d="M13124.8 1052.71L13999.5 1009.93L13933.3 444.918L13058.6 487.701L13124.8 1052.71Z" fill="black"/>
<path d="M13441.3 0L13934.2 445.771L13057.9 488.637L13441.3 0Z" fill="black"/>
</svg>
