<svg width="208" height="213" viewBox="0 0 208 213" fill="none" xmlns="http://www.w3.org/2000/svg">
<path d="M200 56C187.27 56 175.061 50.9429 166.059 41.9411C157.057 32.9394 152 20.7304 152 8C152 5.87827 151.157 3.84344 149.657 2.34315C148.157 0.842854 146.122 0 144 0H104C101.878 0 99.8434 0.842854 98.3431 2.34315C96.8429 3.84344 96 5.87827 96 8V136C95.9922 139.576 95.0258 143.084 93.2015 146.16C91.3771 149.236 88.7615 151.766 85.627 153.487C82.4926 155.208 78.954 156.058 75.3797 155.947C71.8055 155.836 68.3263 154.769 65.3046 152.856C62.2829 150.944 59.8292 148.257 58.1991 145.074C56.5689 141.891 55.8219 138.329 56.0359 134.76C56.2498 131.19 57.417 127.743 59.4156 124.778C61.4143 121.813 64.1715 119.438 67.4 117.9C68.7764 117.267 69.9418 116.252 70.7573 114.976C71.5729 113.699 72.0043 112.215 72 110.7V69.1C72.0198 67.9141 71.7689 66.7393 71.2664 65.6649C70.7639 64.5905 70.023 63.6449 69.1 62.9C68.2046 62.1623 67.1595 61.6281 66.0371 61.3346C64.9147 61.041 63.7419 60.9951 62.6 61.2C48.3679 63.7493 35.1583 70.3054 24.5216 80.099C13.8849 89.8925 6.26257 102.517 2.54922 116.491C-1.16413 130.464 -0.814395 145.207 3.55738 158.989C7.92915 172.771 16.1415 185.02 27.2306 194.298C38.3197 203.576 51.8254 209.498 66.1624 211.37C80.4994 213.242 95.0727 210.985 108.172 204.864C121.271 198.743 132.353 189.013 140.116 176.816C147.879 164.618 152.002 150.459 152 136V100.3C166.817 108.029 183.289 112.044 200 112C202.122 112 204.157 111.157 205.657 109.657C207.157 108.157 208 106.122 208 104V64C208 61.8783 207.157 59.8434 205.657 58.3431C204.157 56.8429 202.122 56 200 56ZM192 95.6C176.384 94.214 161.428 88.653 148.7 79.5C147.496 78.6688 146.089 78.1792 144.629 78.0833C143.169 77.9874 141.71 78.2888 140.408 78.9554C139.105 79.6221 138.008 80.629 137.232 81.8694C136.456 83.1097 136.03 84.5372 136 86V136C135.994 146.999 132.965 157.784 127.244 167.178C121.524 176.571 113.331 184.212 103.561 189.264C93.7916 194.316 82.8213 196.586 71.849 195.825C60.8768 195.064 50.3248 191.302 41.3462 184.949C32.3675 178.597 25.3077 169.899 20.9382 159.805C16.5686 149.712 15.0576 138.612 16.57 127.718C18.0825 116.824 22.5603 106.555 29.5142 98.0334C36.4681 89.5121 45.6304 83.0662 56 79.4V106.1C50.8274 109.556 46.6387 114.294 43.8423 119.85C41.0459 125.407 39.7372 131.594 40.0438 137.808C40.3504 144.021 42.2618 150.049 45.5918 155.303C48.9217 160.558 53.5564 164.86 59.0441 167.79C64.5318 170.72 70.6851 172.178 76.904 172.022C83.123 171.866 89.1953 170.101 94.529 166.899C99.8626 163.697 104.276 159.168 107.337 153.752C110.399 148.337 112.006 142.221 112 136V16H136.5C138.293 30.0934 144.716 43.192 154.762 53.2378C164.808 63.2837 177.907 69.7075 192 71.5V95.6Z" fill="white"/>
</svg>
